<?xml version="1.0" encoding="UTF-8"?>
<svg id="Layer_2" data-name="Layer 2" xmlns="http://www.w3.org/2000/svg" xmlns:xlink="http://www.w3.org/1999/xlink" viewBox="0 0 85.04 23.05">
  <defs>
    <style>
      .cls-1 {
        fill: none;
      }

      .cls-2 {
        fill: #fff;
      }

      .cls-2, .cls-3 {
        fill-rule: evenodd;
      }

      .cls-4 {
        clip-path: url(#clippath-1);
      }

      .cls-3 {
        fill: #1e80ed;
      }

      .cls-5 {
        clip-path: url(#clippath);
      }
    </style>
    <clipPath id="clippath">
      <rect class="cls-1" width="85.04" height="23.05"/>
    </clipPath>
    <clipPath id="clippath-1">
      <rect class="cls-1" y="0" width="85.04" height="23.05"/>
    </clipPath>
  </defs>
  <g id="Logo">
    <g id="Artwork_5" data-name="Artwork 5">
      <g class="cls-5">
        <g class="cls-4">
          <path class="cls-2" d="M57.08,12.53c1.31,0,2.12.11,2.44.25.32.14.67.74.67,1.09,0,.14-.11.21-.21.21-.6-.07-1.62-.21-2.75-.21-1.34,0-2.05.18-2.37.42-.32.25-.46.74-.46,1.34,0,.46.07.71.18.85.35.42,4.59.95,5.29,1.38.32.21.56.81.56,1.8,0,1.38-.35,2.22-.88,2.68-.46.39-1.38.67-3.32.67-1.31,0-2.37-.14-2.68-.32-.35-.21-.64-.78-.64-1.16,0-.14.14-.21.25-.21.64.11,1.98.32,3.04.32,1.38,0,1.94-.14,2.19-.35.28-.21.46-.6.46-1.27,0-.56-.11-.85-.28-.95-.42-.39-4.55-.95-5.19-1.38-.35-.25-.53-.95-.53-1.8,0-1.31.35-2.12.88-2.54.6-.49,1.66-.81,3.35-.81M42.86,12.67c.35,0,.49.11.49.57v7.91c0,.32.11.42.42.42h.88c1.48,0,2.61-.07,3.35-.11.14,0,.21.07.21.21,0,.32-.42.95-.71,1.09-.25.11-1.02.14-2.68.14h-.74c-.92,0-1.16,0-1.94-.04-.11,0-.35-.07-.35-.42v-9.6c0-.11.04-.21.14-.21h.92v.04ZM28.1,12.67c.42,0,.53.11.53.6v3c0,.71.07.78.64.78h4.02c.53,0,.64-.11.64-.71v-3.11c0-.46.11-.57.53-.57h.81c.18,0,.18.07.18.21v9.78c0,.14-.07.21-.18.21h-.81c-.42,0-.49-.11-.49-.53v-3.21c0-.67-.11-.74-.67-.74h-3.99c-.6,0-.67.07-.67.74v3.18c0,.49-.11.56-.53.56h-.78c-.14,0-.18-.11-.18-.21v-9.78c0-.14.07-.21.18-.21h.78ZM39.19,12.67c.14,0,.18.11.18.21v9.57c0,.32-.14.42-.42.42h-.88c-.14,0-.18-.11-.18-.21v-9.57c0-.28.11-.42.39-.42h.92ZM50.87,12.67c.14,0,.18.11.18.21v9.57c0,.32-.14.42-.42.42h-.88c-.14,0-.18-.11-.18-.21v-9.57c0-.28.11-.42.39-.42h.92ZM24.64,13.1c.46.32.92,1.02.92,2.54,0,1.31-.46,2.44-1.02,2.82-.46.35-1.27.49-2.58.49h-2.08c-.21,0-.32.07-.32.39v3.25c0,.25-.07.32-.32.32h-1.02c-.14,0-.18-.07-.18-.21v-9.74c0-.18.11-.21.21-.21.99-.04,2.15-.07,3.35-.07,1.94-.04,2.58.11,3.04.42M21.61,13.91h-.39c-.56,0-1.06,0-1.38.04-.18,0-.28.07-.28.28v3.11c0,.25.07.32.32.32h1.91c.88,0,1.24-.04,1.52-.18.39-.21.74-.74.74-1.76,0-.88-.21-1.34-.53-1.55-.28-.14-.71-.25-1.91-.25M38.38.18c.67,0,.85.07.85.85v5.51c0,1.16.11,1.69.42,2.05.32.32,1.02.6,2.15.6s1.84-.21,2.19-.53c.32-.32.53-.85.53-2.08V.99c0-.74.21-.81.85-.81h.49c.14,0,.21.07.21.21v6.21c0,1.73-.25,2.51-.85,3.07-.49.46-1.62.92-3.42.92s-2.93-.42-3.46-.99c-.49-.56-.67-1.27-.67-2.82V.39c0-.14.07-.21.18-.21h.53ZM12.4.04c1.31,0,2.12.11,2.44.25.32.14.67.74.67,1.09,0,.14-.11.21-.21.21-.64-.04-1.66-.18-2.79-.18-1.34,0-2.05.18-2.36.42-.32.25-.46.74-.46,1.34,0,.46.07.71.18.85.35.42,4.59.95,5.29,1.38.32.21.56.81.56,1.8,0,1.38-.35,2.22-.88,2.68-.46.39-1.38.67-3.32.67-1.27,0-2.33-.14-2.68-.32-.35-.21-.64-.78-.64-1.16,0-.14.14-.21.25-.21.64.11,1.98.32,3.04.32,1.38,0,1.94-.14,2.19-.35.28-.21.46-.6.46-1.27,0-.56-.11-.85-.28-.95-.21-.18-1.38-.42-2.58-.67l-.25-.07c-1.06-.21-2.05-.46-2.37-.64-.35-.28-.53-.99-.53-1.84,0-1.31.35-2.12.88-2.54.6-.49,1.66-.81,3.39-.81M22.35.07c1.31,0,2.15.07,2.51.28.39.21.64.74.64,1.06,0,.11-.07.21-.21.21-.6-.07-1.48-.21-2.75-.21-1.52,0-2.26.21-2.68.64-.53.46-.95,1.52-.95,3.28s.32,2.86.88,3.28c.46.35,1.31.56,2.72.56,1.2,0,2.33-.18,2.86-.21.11,0,.21.04.18.18-.04.35-.32.88-.67,1.09-.32.18-1.24.35-2.86.35-1.76,0-2.86-.35-3.42-.88-.67-.56-1.27-1.8-1.27-4.2s.67-3.81,1.48-4.45c.64-.6,1.62-.99,3.56-.99M52.04.18c2.05,0,2.75.18,3.18.46.42.32.78.95.78,1.98,0,.92-.25,1.48-.46,1.87-.11.21-.21.32-.21.46,0,.11.07.25.25.42.35.39.78,1.06.78,2.12,0,1.38-.53,2.15-1.09,2.51-.46.32-1.27.49-3.18.49-1.34,0-2.47-.04-3.35-.07-.11,0-.35-.07-.35-.42V.53c0-.25.18-.28.32-.28.92-.04,2.08-.07,3.35-.07M84.19.32c.35.18.67.78.67,1.09,0,.14-.11.21-.21.21-.64-.11-1.76-.25-2.89-.25-1.52,0-2.4.25-2.86.64-.49.46-.99,1.52-.99,3.25s.32,2.82.88,3.28c.42.35,1.2.6,2.29.6.88,0,1.55-.11,1.98-.21.28-.07.39-.18.39-.53v-2.01c0-.28-.11-.35-.39-.35h-1.91c-.14,0-.21-.04-.21-.21,0-.25.32-.85.56-.99.14-.11.32-.11.64-.11h2.33c.35,0,.56.07.56.53v4.09c0,.35-.14.56-.56.67-.71.18-1.87.39-3.28.39-1.98,0-2.93-.39-3.53-.92-.64-.56-1.2-1.76-1.2-4.13,0-2.58.78-3.85,1.45-4.41C78.54.42,79.67,0,81.65,0c1.34,0,2.19.11,2.54.32M64.64.25c.28.07.64.74.64,1.09,0,.11-.11.21-.21.21-.78-.04-1.98-.07-3.14-.07h-.28c-.64,0-1.2,0-1.59.04-.32,0-.39.11-.39.42v2.33c0,.25.11.28.32.28h4.62c.14,0,.21.07.21.21,0,.21-.28.81-.53.99-.18.11-.35.11-.71.11h-3.64c-.21,0-.32.07-.32.35v2.44c0,.32.11.42.42.42h1.69c1.59,0,2.68-.04,3.49-.11.11,0,.21.04.21.18,0,.32-.42.99-.74,1.09-.28.11-1.02.14-2.68.14h-.6c-1.24,0-2.26,0-3.04-.04-.11,0-.35-.07-.35-.42V.53c0-.25.21-.32.32-.32.95-.04,1.91-.07,3.21-.07h.49c1.34,0,2.33,0,2.58.11M28.1.18c.42,0,.53.11.53.6v3c0,.74.11.78.67.78h3.95c.53,0,.64-.11.64-.71V.74c0-.46.11-.56.53-.56h.81c.18,0,.18.07.18.21v9.78c0,.14-.07.21-.18.21h-.81c-.42,0-.49-.11-.49-.53v-3.21c0-.67-.11-.74-.67-.74h-3.95c-.56,0-.67.07-.67.71v3.25c0,.49-.11.56-.53.56h-.78c-.14,0-.18-.11-.18-.21V.39c0-.14.07-.21.18-.21h.78ZM70.74.14c2.01,0,2.72.14,3.21.49.49.35.85,1.02.85,2.15,0,1.2-.32,2.01-.81,2.65-.21.25-.28.39-.28.6s.07.49.28,1.06l1.16,3.07c.07.14,0,.32-.18.32h-.35c-.74,0-1.06-.21-1.34-.99l-.78-2.12c-.28-.74-.56-.92-1.31-.92h-2.08c-.25,0-.32.07-.32.35v3.35c0,.25-.07.32-.32.32h-1.06c-.14,0-.18-.07-.18-.21V.42c0-.14.11-.21.21-.21.88-.04,2.26-.07,3.28-.07M52.81,5.79h-2.54c-.28,0-.39.11-.39.42v2.51c0,.32.11.39.42.39.39,0,1.02.04,1.76.04,1.02,0,1.76-.07,2.08-.28.32-.25.56-.67.56-1.45s-.32-1.31-.67-1.48c-.21-.11-.46-.11-1.24-.14M70.78,1.41c-.67,0-1.38,0-1.76.04-.18,0-.28.07-.28.32v2.96c0,.28.07.35.32.35h2.29c.6,0,.85-.04,1.06-.11.32-.11.81-.85.81-1.91,0-.67-.18-1.09-.46-1.34-.21-.21-.85-.32-1.98-.32M51.89,1.45c-.6,0-1.2,0-1.62.07-.32,0-.39.11-.39.42v2.26c0,.28.11.32.35.32h2.4c.6,0,.95-.04,1.16-.14.28-.18.64-.56.64-1.41,0-.74-.21-1.06-.49-1.24-.32-.18-.85-.28-2.05-.28"/>
          <path class="cls-3" d="M0,.25C-.03.07.08,0,.22,0h1.45C2.27,0,2.58.18,2.83.92l7.52,21.88c.04.14,0,.25-.14.25h-1.48c-.53,0-.92-.18-1.16-.92L0,.25Z"/>
        </g>
      </g>
    </g>
  </g>
</svg>